<svg xmlns="http://www.w3.org/2000/svg" xmlns:xlink="http://www.w3.org/1999/xlink" width="1890" zoomAndPan="magnify" viewBox="0 0 1416.96 1417.499936" height="1890" preserveAspectRatio="xMidYMid meet" version="1.0"><defs><clipPath id="268d84080d"><path d="M 23.652344 23.421875 L 1393.417969 23.421875 L 1393.417969 1393.1875 L 23.652344 1393.1875 Z M 23.652344 23.421875 " clip-rule="nonzero"/></clipPath></defs><g clip-path="url(#268d84080d)"><path fill="#f0c774" d="M 256.957031 23.421875 C 216.714844 23.421875 180.59375 45.753906 162.6875 81.671875 L 37.546875 331.851562 C 28.488281 350.066406 23.652344 370.445312 23.652344 390.71875 L 23.652344 655.71875 C 23.652344 687.3125 37.957031 715.410156 60.082031 734.757812 C 37.957031 754.105469 23.652344 782.199219 23.652344 813.792969 L 23.652344 971.867188 C 23.652344 1003.460938 37.957031 1031.558594 60.082031 1050.90625 C 37.957031 1070.253906 23.652344 1098.347656 23.652344 1129.941406 L 23.652344 1288.015625 C 23.652344 1346.164062 70.890625 1393.398438 129.035156 1393.398438 L 1288.246094 1393.398438 C 1346.390625 1393.398438 1393.628906 1346.164062 1393.628906 1288.015625 L 1393.628906 1129.941406 C 1393.628906 1098.347656 1379.324219 1070.253906 1357.199219 1050.90625 C 1379.324219 1031.558594 1393.628906 1003.460938 1393.628906 971.867188 L 1393.628906 813.792969 C 1393.628906 782.199219 1379.324219 754.105469 1357.199219 734.757812 C 1379.324219 715.410156 1393.628906 687.3125 1393.628906 655.71875 L 1393.628906 390.71875 C 1393.628906 370.445312 1388.792969 350.066406 1379.734375 331.851562 L 1254.59375 81.671875 C 1236.6875 45.753906 1200.566406 23.421875 1160.324219 23.421875 Z M 256.957031 76.113281 L 1160.324219 76.113281 C 1180.394531 76.113281 1198.507812 87.332031 1207.460938 105.238281 L 1332.601562 355.417969 C 1338.054688 366.328125 1340.9375 378.574219 1340.9375 390.71875 L 1340.9375 392.261719 L 76.34375 392.261719 L 76.34375 390.71875 C 76.34375 378.574219 79.226562 366.328125 84.679688 355.417969 L 209.71875 105.238281 C 218.773438 87.332031 236.785156 76.113281 256.957031 76.113281 Z M 260.761719 128.804688 C 246.148438 128.804688 234.417969 140.535156 234.417969 155.152344 C 234.417969 169.765625 246.148438 181.496094 260.761719 181.496094 L 945.753906 181.496094 C 960.367188 181.496094 972.097656 169.765625 972.097656 155.152344 C 972.097656 140.535156 960.367188 128.804688 945.753906 128.804688 Z M 1051.136719 128.804688 C 1036.519531 128.804688 1024.789062 140.535156 1024.789062 155.152344 C 1024.789062 169.765625 1036.519531 181.496094 1051.136719 181.496094 L 1156.519531 181.496094 C 1171.132812 181.496094 1182.863281 169.765625 1182.863281 155.152344 C 1182.863281 140.535156 1171.132812 128.804688 1156.519531 128.804688 Z M 76.34375 444.953125 L 1340.9375 444.953125 L 1340.9375 655.71875 C 1340.9375 684.742188 1317.269531 708.410156 1288.246094 708.410156 L 129.035156 708.410156 C 100.011719 708.410156 76.34375 684.742188 76.34375 655.71875 Z M 1156.519531 497.644531 C 1112.984375 497.644531 1077.480469 533.148438 1077.480469 576.683594 C 1077.480469 620.214844 1112.984375 655.71875 1156.519531 655.71875 C 1200.050781 655.71875 1235.554688 620.214844 1235.554688 576.683594 C 1235.554688 533.148438 1200.050781 497.644531 1156.519531 497.644531 Z M 208.070312 523.992188 C 193.457031 523.992188 181.726562 535.722656 181.726562 550.335938 L 181.726562 603.027344 C 181.726562 617.640625 193.457031 629.375 208.070312 629.375 C 222.6875 629.375 234.417969 617.640625 234.417969 603.027344 L 234.417969 550.335938 C 234.417969 535.722656 222.6875 523.992188 208.070312 523.992188 Z M 339.800781 523.992188 C 325.1875 523.992188 313.453125 535.722656 313.453125 550.335938 L 313.453125 603.027344 C 313.453125 617.640625 325.1875 629.375 339.800781 629.375 C 354.414062 629.375 366.144531 617.640625 366.144531 603.027344 L 366.144531 550.335938 C 366.144531 535.722656 354.414062 523.992188 339.800781 523.992188 Z M 471.527344 523.992188 C 456.914062 523.992188 445.183594 535.722656 445.183594 550.335938 L 445.183594 603.027344 C 445.183594 617.640625 456.914062 629.375 471.527344 629.375 C 486.144531 629.375 497.875 617.640625 497.875 603.027344 L 497.875 550.335938 C 497.875 535.722656 486.144531 523.992188 471.527344 523.992188 Z M 603.257812 523.992188 C 588.644531 523.992188 576.910156 535.722656 576.910156 550.335938 L 576.910156 603.027344 C 576.910156 617.640625 588.644531 629.375 603.257812 629.375 C 617.871094 629.375 629.605469 617.640625 629.605469 603.027344 L 629.605469 550.335938 C 629.605469 535.722656 617.871094 523.992188 603.257812 523.992188 Z M 734.988281 523.992188 C 720.371094 523.992188 708.640625 535.722656 708.640625 550.335938 L 708.640625 603.027344 C 708.640625 617.640625 720.371094 629.375 734.988281 629.375 C 749.601562 629.375 761.332031 617.640625 761.332031 603.027344 L 761.332031 550.335938 C 761.332031 535.722656 749.601562 523.992188 734.988281 523.992188 Z M 1156.519531 544.882812 C 1174.117188 544.882812 1188.316406 559.1875 1188.316406 576.683594 C 1188.316406 594.28125 1174.011719 608.480469 1156.519531 608.480469 C 1139.023438 608.480469 1124.71875 594.28125 1124.71875 576.683594 C 1124.71875 559.085938 1138.917969 544.882812 1156.519531 544.882812 Z M 840.371094 550.335938 C 825.753906 550.335938 814.023438 562.070312 814.023438 576.683594 C 814.023438 591.296875 825.753906 603.027344 840.371094 603.027344 L 998.445312 603.027344 C 1013.058594 603.027344 1024.789062 591.296875 1024.789062 576.683594 C 1024.789062 562.070312 1013.058594 550.335938 998.445312 550.335938 Z M 129.035156 761.101562 L 1288.246094 761.101562 C 1317.269531 761.101562 1340.9375 784.773438 1340.9375 813.792969 L 1340.9375 971.867188 C 1340.9375 1000.890625 1317.269531 1024.558594 1288.246094 1024.558594 L 129.035156 1024.558594 C 100.011719 1024.558594 76.34375 1000.890625 76.34375 971.867188 L 76.34375 813.792969 C 76.34375 784.773438 100.011719 761.101562 129.035156 761.101562 Z M 1156.519531 813.792969 C 1112.984375 813.792969 1077.480469 849.296875 1077.480469 892.832031 C 1077.480469 936.363281 1112.984375 971.867188 1156.519531 971.867188 C 1200.050781 971.867188 1235.554688 936.363281 1235.554688 892.832031 C 1235.554688 849.296875 1200.050781 813.792969 1156.519531 813.792969 Z M 208.070312 840.140625 C 193.457031 840.140625 181.726562 851.871094 181.726562 866.484375 L 181.726562 919.175781 C 181.726562 933.789062 193.457031 945.523438 208.070312 945.523438 C 222.6875 945.523438 234.417969 933.789062 234.417969 919.175781 L 234.417969 866.484375 C 234.417969 851.871094 222.6875 840.140625 208.070312 840.140625 Z M 339.800781 840.140625 C 325.1875 840.140625 313.453125 851.871094 313.453125 866.484375 L 313.453125 919.175781 C 313.453125 933.789062 325.1875 945.523438 339.800781 945.523438 C 354.414062 945.523438 366.144531 933.789062 366.144531 919.175781 L 366.144531 866.484375 C 366.144531 851.871094 354.414062 840.140625 339.800781 840.140625 Z M 471.527344 840.140625 C 456.914062 840.140625 445.183594 851.871094 445.183594 866.484375 L 445.183594 919.175781 C 445.183594 933.789062 456.914062 945.523438 471.527344 945.523438 C 486.144531 945.523438 497.875 933.789062 497.875 919.175781 L 497.875 866.484375 C 497.875 851.871094 486.144531 840.140625 471.527344 840.140625 Z M 603.257812 840.140625 C 588.644531 840.140625 576.910156 851.871094 576.910156 866.484375 L 576.910156 919.175781 C 576.910156 933.789062 588.644531 945.523438 603.257812 945.523438 C 617.871094 945.523438 629.605469 933.789062 629.605469 919.175781 L 629.605469 866.484375 C 629.605469 851.871094 617.871094 840.140625 603.257812 840.140625 Z M 734.988281 840.140625 C 720.371094 840.140625 708.640625 851.871094 708.640625 866.484375 L 708.640625 919.175781 C 708.640625 933.789062 720.371094 945.523438 734.988281 945.523438 C 749.601562 945.523438 761.332031 933.789062 761.332031 919.175781 L 761.332031 866.484375 C 761.332031 851.871094 749.601562 840.140625 734.988281 840.140625 Z M 1156.519531 861.03125 C 1174.011719 861.03125 1188.316406 875.335938 1188.316406 892.832031 C 1188.316406 910.429688 1174.117188 924.632812 1156.519531 924.632812 C 1138.917969 924.632812 1124.71875 910.324219 1124.71875 892.832031 C 1124.71875 875.234375 1139.023438 861.03125 1156.519531 861.03125 Z M 840.371094 866.484375 C 825.753906 866.484375 814.023438 878.21875 814.023438 892.832031 C 814.023438 907.445312 825.753906 919.175781 840.371094 919.175781 L 998.445312 919.175781 C 1013.058594 919.175781 1024.789062 907.445312 1024.789062 892.832031 C 1024.789062 878.21875 1013.058594 866.484375 998.445312 866.484375 Z M 129.035156 1077.25 L 1288.246094 1077.25 C 1317.269531 1077.25 1340.9375 1100.921875 1340.9375 1129.941406 L 1340.9375 1288.015625 C 1340.9375 1317.039062 1317.269531 1340.707031 1288.246094 1340.707031 L 129.035156 1340.707031 C 100.011719 1340.707031 76.34375 1317.039062 76.34375 1288.015625 L 76.34375 1129.941406 C 76.34375 1100.921875 100.011719 1077.25 129.035156 1077.25 Z M 1156.519531 1129.941406 C 1112.984375 1129.941406 1077.480469 1165.449219 1077.480469 1208.980469 C 1077.480469 1252.511719 1112.984375 1288.015625 1156.519531 1288.015625 C 1200.050781 1288.015625 1235.554688 1252.511719 1235.554688 1208.980469 C 1235.554688 1165.449219 1200.050781 1129.941406 1156.519531 1129.941406 Z M 208.070312 1156.289062 C 193.457031 1156.289062 181.726562 1168.019531 181.726562 1182.632812 L 181.726562 1235.324219 C 181.726562 1249.9375 193.457031 1261.671875 208.070312 1261.671875 C 222.6875 1261.671875 234.417969 1249.9375 234.417969 1235.324219 L 234.417969 1182.632812 C 234.417969 1168.019531 222.6875 1156.289062 208.070312 1156.289062 Z M 339.800781 1156.289062 C 325.1875 1156.289062 313.453125 1168.019531 313.453125 1182.632812 L 313.453125 1235.324219 C 313.453125 1249.9375 325.1875 1261.671875 339.800781 1261.671875 C 354.414062 1261.671875 366.144531 1249.9375 366.144531 1235.324219 L 366.144531 1182.632812 C 366.144531 1168.019531 354.414062 1156.289062 339.800781 1156.289062 Z M 471.527344 1156.289062 C 456.914062 1156.289062 445.183594 1168.019531 445.183594 1182.632812 L 445.183594 1235.324219 C 445.183594 1249.9375 456.914062 1261.671875 471.527344 1261.671875 C 486.144531 1261.671875 497.875 1249.9375 497.875 1235.324219 L 497.875 1182.632812 C 497.875 1168.019531 486.144531 1156.289062 471.527344 1156.289062 Z M 603.257812 1156.289062 C 588.644531 1156.289062 576.910156 1168.019531 576.910156 1182.632812 L 576.910156 1235.324219 C 576.910156 1249.9375 588.644531 1261.671875 603.257812 1261.671875 C 617.871094 1261.671875 629.605469 1249.9375 629.605469 1235.324219 L 629.605469 1182.632812 C 629.605469 1168.019531 617.871094 1156.289062 603.257812 1156.289062 Z M 734.988281 1156.289062 C 720.371094 1156.289062 708.640625 1168.019531 708.640625 1182.632812 L 708.640625 1235.324219 C 708.640625 1249.9375 720.371094 1261.671875 734.988281 1261.671875 C 749.601562 1261.671875 761.332031 1249.9375 761.332031 1235.324219 L 761.332031 1182.632812 C 761.332031 1168.019531 749.601562 1156.289062 734.988281 1156.289062 Z M 1156.519531 1176.046875 C 1174.734375 1176.046875 1189.449219 1190.765625 1189.449219 1208.980469 C 1189.449219 1227.195312 1174.734375 1241.910156 1156.519531 1241.910156 C 1138.300781 1241.910156 1123.585938 1227.195312 1123.585938 1208.980469 C 1123.585938 1190.765625 1138.300781 1176.046875 1156.519531 1176.046875 Z M 840.371094 1182.632812 C 825.753906 1182.632812 814.023438 1194.367188 814.023438 1208.980469 C 814.023438 1223.59375 825.753906 1235.324219 840.371094 1235.324219 L 998.445312 1235.324219 C 1013.058594 1235.324219 1024.789062 1223.59375 1024.789062 1208.980469 C 1024.789062 1194.367188 1013.058594 1182.632812 998.445312 1182.632812 Z M 840.371094 1182.632812 " fill-opacity="1" fill-rule="nonzero"/></g></svg>