<svg xmlns="http://www.w3.org/2000/svg" xmlns:xlink="http://www.w3.org/1999/xlink" width="1890" zoomAndPan="magnify" viewBox="0 0 1416.96 1417.499936" height="1890" preserveAspectRatio="xMidYMid meet" version="1.0"><defs><clipPath id="5eba72fa15"><path d="M 560 5.082031 L 710 5.082031 L 710 155 L 560 155 Z M 560 5.082031 " clip-rule="nonzero"/></clipPath><clipPath id="92b9d2aa4f"><path d="M 560 1262 L 710 1262 L 710 1411.582031 L 560 1411.582031 Z M 560 1262 " clip-rule="nonzero"/></clipPath><clipPath id="83de4f6ba1"><path d="M 14.101562 484 L 164 484 L 164 634 L 14.101562 634 Z M 14.101562 484 " clip-rule="nonzero"/></clipPath><clipPath id="50cef70520"><path d="M 14.101562 782 L 164 782 L 164 932 L 14.101562 932 Z M 14.101562 782 " clip-rule="nonzero"/></clipPath></defs><path fill="#f0c774" d="M 936.488281 979.109375 L 479.964844 979.109375 C 432.992188 979.109375 394.261719 940.378906 394.261719 893.40625 L 394.261719 523.410156 C 394.261719 475.613281 432.992188 436.882812 479.964844 436.882812 L 936.488281 436.882812 C 984.285156 436.882812 1023.011719 475.613281 1023.011719 523.410156 L 1023.011719 893.40625 C 1023.011719 940.378906 984.285156 979.109375 936.488281 979.109375 Z M 495.621094 807.707031 C 493.972656 807.707031 492.324219 807.707031 490.675781 806.882812 C 483.261719 804.410156 479.964844 796.167969 483.261719 788.753906 L 512.925781 714.589844 L 512.925781 713.765625 L 566.488281 580.269531 C 566.488281 580.269531 566.488281 579.445312 566.488281 579.445312 C 567.3125 577.796875 568.136719 576.148438 569.785156 575.324219 C 570.609375 573.675781 572.257812 572.851562 573.90625 572.027344 C 573.90625 572.027344 573.90625 572.027344 574.730469 572.027344 C 576.378906 571.203125 577.203125 571.203125 578.851562 571.203125 C 580.496094 571.203125 582.144531 571.203125 583.792969 572.027344 C 583.792969 572.027344 584.617188 572.027344 584.617188 572.027344 C 586.265625 572.851562 587.914062 573.675781 588.738281 575.324219 C 590.386719 576.148438 591.210938 577.796875 592.035156 579.445312 C 592.035156 579.445312 592.035156 580.269531 592.035156 580.269531 L 645.597656 713.765625 L 645.597656 714.589844 L 675.265625 788.753906 C 677.734375 796.167969 674.441406 804.410156 667.847656 806.882812 C 660.429688 809.355469 652.191406 806.058594 649.71875 799.464844 L 623.347656 733.542969 L 535.175781 733.542969 L 508.804688 799.464844 C 506.332031 804.410156 501.390625 807.707031 495.621094 807.707031 Z M 809.585938 808.53125 L 736.242188 808.53125 C 728.828125 808.53125 723.058594 802.761719 723.058594 795.347656 C 723.058594 787.105469 728.828125 781.335938 736.242188 781.335938 L 795.574219 781.335938 L 795.574219 597.574219 L 736.242188 597.574219 C 728.828125 597.574219 723.058594 591.804688 723.058594 584.386719 C 723.058594 576.148438 728.828125 570.378906 736.242188 570.378906 L 882.101562 570.378906 C 889.515625 570.378906 896.109375 576.148438 896.109375 584.386719 C 896.109375 591.804688 889.515625 597.574219 882.101562 597.574219 L 822.769531 597.574219 L 822.769531 781.335938 L 882.101562 781.335938 C 889.515625 781.335938 896.109375 787.105469 896.109375 795.347656 C 896.109375 802.761719 889.515625 808.53125 882.101562 808.53125 Z M 612.636719 705.523438 L 578.851562 622.292969 L 545.886719 705.523438 Z M 612.636719 705.523438 " fill-opacity="1" fill-rule="evenodd"/><path fill="#f0c774" d="M 635.710938 464.902344 C 628.292969 464.902344 621.699219 458.308594 621.699219 450.890625 L 621.699219 140.226562 C 621.699219 132.808594 628.292969 126.214844 635.710938 126.214844 C 643.125 126.214844 648.894531 132.808594 648.894531 140.226562 L 648.894531 450.890625 C 648.894531 458.308594 643.125 464.902344 635.710938 464.902344 Z M 635.710938 464.902344 " fill-opacity="1" fill-rule="evenodd"/><g clip-path="url(#5eba72fa15)"><path fill="#f0c774" d="M 635.710938 154.234375 C 594.507812 154.234375 560.71875 120.449219 560.71875 79.246094 C 560.71875 38.867188 594.507812 5.082031 635.710938 5.082031 C 676.910156 5.082031 709.875 38.867188 709.875 79.246094 C 709.875 120.449219 676.910156 154.234375 635.710938 154.234375 Z M 635.710938 154.234375 " fill-opacity="1" fill-rule="evenodd"/></g><path fill="#f0c774" d="M 781.566406 464.902344 C 774.148438 464.902344 767.558594 458.308594 767.558594 450.890625 L 767.558594 322.339844 C 767.558594 314.921875 774.148438 308.332031 781.566406 308.332031 C 788.984375 308.332031 795.574219 314.921875 795.574219 322.339844 L 795.574219 450.890625 C 795.574219 458.308594 788.984375 464.902344 781.566406 464.902344 Z M 781.566406 464.902344 " fill-opacity="1" fill-rule="evenodd"/><path fill="#f0c774" d="M 781.566406 336.347656 C 740.363281 336.347656 707.402344 302.5625 707.402344 261.359375 C 707.402344 220.980469 740.363281 187.195312 781.566406 187.195312 C 822.769531 187.195312 855.730469 220.980469 855.730469 261.359375 C 855.730469 302.5625 822.769531 336.347656 781.566406 336.347656 Z M 781.566406 336.347656 " fill-opacity="1" fill-rule="evenodd"/><path fill="#f0c774" d="M 927.421875 464.902344 C 920.007812 464.902344 913.414062 458.308594 913.414062 450.890625 L 913.414062 249.824219 C 913.414062 209.445312 946.375 176.484375 986.753906 176.484375 L 1074.105469 176.484375 C 1081.519531 176.484375 1088.113281 183.074219 1088.113281 190.492188 C 1088.113281 197.910156 1081.519531 204.5 1074.105469 204.5 L 986.753906 204.5 C 962.035156 204.5 941.433594 224.277344 941.433594 249.824219 L 941.433594 450.890625 C 941.433594 458.308594 934.839844 464.902344 927.421875 464.902344 Z M 927.421875 464.902344 " fill-opacity="1" fill-rule="evenodd"/><path fill="#f0c774" d="M 1135.085938 264.65625 C 1093.882812 264.65625 1060.097656 231.695312 1060.097656 190.492188 C 1060.097656 149.289062 1093.882812 116.328125 1135.085938 116.328125 C 1176.289062 116.328125 1209.25 149.289062 1209.25 190.492188 C 1209.25 231.695312 1176.289062 264.65625 1135.085938 264.65625 Z M 1135.085938 264.65625 " fill-opacity="1" fill-rule="evenodd"/><path fill="#f0c774" d="M 489.851562 464.902344 C 481.613281 464.902344 475.84375 458.308594 475.84375 450.890625 L 475.84375 249.824219 C 475.84375 224.277344 455.242188 204.5 430.519531 204.5 L 343.171875 204.5 C 334.929688 204.5 329.164062 197.910156 329.164062 190.492188 C 329.164062 183.074219 334.929688 176.484375 343.171875 176.484375 L 430.519531 176.484375 C 470.898438 176.484375 503.035156 209.445312 503.035156 249.824219 L 503.035156 450.890625 C 503.035156 458.308594 497.269531 464.902344 489.851562 464.902344 Z M 489.851562 464.902344 " fill-opacity="1" fill-rule="evenodd"/><path fill="#f0c774" d="M 282.191406 264.65625 C 240.988281 264.65625 208.027344 231.695312 208.027344 190.492188 C 208.027344 149.289062 240.988281 116.328125 282.191406 116.328125 C 323.394531 116.328125 356.355469 149.289062 356.355469 190.492188 C 356.355469 231.695312 323.394531 264.65625 282.191406 264.65625 Z M 282.191406 264.65625 " fill-opacity="1" fill-rule="evenodd"/><path fill="#f0c774" d="M 1267.757812 572.851562 L 1009.003906 572.851562 C 1001.589844 572.851562 994.996094 566.257812 994.996094 558.84375 C 994.996094 551.425781 1001.589844 545.65625 1009.003906 545.65625 L 1267.757812 545.65625 C 1275.171875 545.65625 1280.941406 551.425781 1280.941406 558.84375 C 1280.941406 566.257812 1275.171875 572.851562 1267.757812 572.851562 Z M 1267.757812 572.851562 " fill-opacity="1" fill-rule="evenodd"/><path fill="#f0c774" d="M 1327.914062 633.832031 C 1287.535156 633.832031 1253.75 600.046875 1253.75 558.84375 C 1253.75 517.640625 1287.535156 484.679688 1327.914062 484.679688 C 1369.117188 484.679688 1402.902344 517.640625 1402.902344 558.84375 C 1402.902344 600.046875 1369.117188 633.832031 1327.914062 633.832031 Z M 1327.914062 633.832031 " fill-opacity="1" fill-rule="evenodd"/><path fill="#f0c774" d="M 1086.464844 722.003906 L 1009.003906 722.003906 C 1001.589844 722.003906 994.996094 716.238281 994.996094 707.996094 C 994.996094 700.578125 1001.589844 694.8125 1009.003906 694.8125 L 1086.464844 694.8125 C 1093.882812 694.8125 1099.652344 700.578125 1099.652344 707.996094 C 1099.652344 716.238281 1093.882812 722.003906 1086.464844 722.003906 Z M 1086.464844 722.003906 " fill-opacity="1" fill-rule="evenodd"/><path fill="#f0c774" d="M 1146.621094 782.984375 C 1106.242188 782.984375 1072.457031 749.199219 1072.457031 707.996094 C 1072.457031 667.617188 1106.242188 633.832031 1146.621094 633.832031 C 1187.824219 633.832031 1221.609375 667.617188 1221.609375 707.996094 C 1221.609375 749.199219 1187.824219 782.984375 1146.621094 782.984375 Z M 1146.621094 782.984375 " fill-opacity="1" fill-rule="evenodd"/><path fill="#f0c774" d="M 1267.757812 870.335938 L 1009.003906 870.335938 C 1001.589844 870.335938 994.996094 864.566406 994.996094 856.324219 C 994.996094 848.910156 1001.589844 843.140625 1009.003906 843.140625 L 1267.757812 843.140625 C 1275.171875 843.140625 1280.941406 848.910156 1280.941406 856.324219 C 1280.941406 864.566406 1275.171875 870.335938 1267.757812 870.335938 Z M 1267.757812 870.335938 " fill-opacity="1" fill-rule="evenodd"/><path fill="#f0c774" d="M 1327.914062 931.3125 C 1287.535156 931.3125 1253.75 897.527344 1253.75 856.324219 C 1253.75 815.945312 1287.535156 782.160156 1327.914062 782.160156 C 1369.117188 782.160156 1402.902344 815.945312 1402.902344 856.324219 C 1402.902344 897.527344 1369.117188 931.3125 1327.914062 931.3125 Z M 1327.914062 931.3125 " fill-opacity="1" fill-rule="evenodd"/><path fill="#f0c774" d="M 635.710938 1289.777344 C 628.292969 1289.777344 621.699219 1284.007812 621.699219 1276.59375 L 621.699219 965.925781 C 621.699219 957.683594 628.292969 951.914062 635.710938 951.914062 C 643.125 951.914062 648.894531 957.683594 648.894531 965.925781 L 648.894531 1276.59375 C 648.894531 1284.007812 643.125 1289.777344 635.710938 1289.777344 Z M 635.710938 1289.777344 " fill-opacity="1" fill-rule="evenodd"/><g clip-path="url(#92b9d2aa4f)"><path fill="#f0c774" d="M 635.710938 1411.738281 C 594.507812 1411.738281 560.71875 1377.949219 560.71875 1336.746094 C 560.71875 1295.546875 594.507812 1262.582031 635.710938 1262.582031 C 676.910156 1262.582031 709.875 1295.546875 709.875 1336.746094 C 709.875 1377.949219 676.910156 1411.738281 635.710938 1411.738281 Z M 635.710938 1411.738281 " fill-opacity="1" fill-rule="evenodd"/></g><path fill="#f0c774" d="M 781.566406 1107.660156 C 774.148438 1107.660156 767.558594 1101.894531 767.558594 1094.476562 L 767.558594 965.925781 C 767.558594 957.683594 774.148438 951.914062 781.566406 951.914062 C 788.984375 951.914062 795.574219 957.683594 795.574219 965.925781 L 795.574219 1094.476562 C 795.574219 1101.894531 788.984375 1107.660156 781.566406 1107.660156 Z M 781.566406 1107.660156 " fill-opacity="1" fill-rule="evenodd"/><path fill="#f0c774" d="M 781.566406 1229.621094 C 740.363281 1229.621094 707.402344 1195.835938 707.402344 1154.632812 C 707.402344 1113.429688 740.363281 1080.46875 781.566406 1080.46875 C 822.769531 1080.46875 855.730469 1113.429688 855.730469 1154.632812 C 855.730469 1195.835938 822.769531 1229.621094 781.566406 1229.621094 Z M 781.566406 1229.621094 " fill-opacity="1" fill-rule="evenodd"/><path fill="#f0c774" d="M 1074.105469 1239.507812 L 986.753906 1239.507812 C 946.375 1239.507812 913.414062 1207.371094 913.414062 1166.992188 L 913.414062 965.925781 C 913.414062 957.683594 920.007812 951.914062 927.421875 951.914062 C 934.839844 951.914062 941.433594 957.683594 941.433594 965.925781 L 941.433594 1166.992188 C 941.433594 1191.714844 962.035156 1212.316406 986.753906 1212.316406 L 1074.105469 1212.316406 C 1081.519531 1212.316406 1088.113281 1218.085938 1088.113281 1226.324219 C 1088.113281 1233.742188 1081.519531 1239.507812 1074.105469 1239.507812 Z M 1074.105469 1239.507812 " fill-opacity="1" fill-rule="evenodd"/><path fill="#f0c774" d="M 1135.085938 1300.488281 C 1093.882812 1300.488281 1060.097656 1266.703125 1060.097656 1226.324219 C 1060.097656 1185.121094 1093.882812 1151.335938 1135.085938 1151.335938 C 1176.289062 1151.335938 1209.25 1185.121094 1209.25 1226.324219 C 1209.25 1266.703125 1176.289062 1300.488281 1135.085938 1300.488281 Z M 1135.085938 1300.488281 " fill-opacity="1" fill-rule="evenodd"/><path fill="#f0c774" d="M 430.519531 1239.507812 L 343.171875 1239.507812 C 334.929688 1239.507812 329.164062 1233.742188 329.164062 1226.324219 C 329.164062 1218.085938 334.929688 1212.316406 343.171875 1212.316406 L 430.519531 1212.316406 C 455.242188 1212.316406 475.84375 1191.714844 475.84375 1166.992188 L 475.84375 965.925781 C 475.84375 957.683594 481.613281 951.914062 489.851562 951.914062 C 497.269531 951.914062 503.035156 957.683594 503.035156 965.925781 L 503.035156 1166.992188 C 503.035156 1207.371094 470.898438 1239.507812 430.519531 1239.507812 Z M 430.519531 1239.507812 " fill-opacity="1" fill-rule="evenodd"/><path fill="#f0c774" d="M 282.191406 1300.488281 C 240.988281 1300.488281 208.027344 1266.703125 208.027344 1226.324219 C 208.027344 1185.121094 240.988281 1151.335938 282.191406 1151.335938 C 323.394531 1151.335938 356.355469 1185.121094 356.355469 1226.324219 C 356.355469 1266.703125 323.394531 1300.488281 282.191406 1300.488281 Z M 282.191406 1300.488281 " fill-opacity="1" fill-rule="evenodd"/><path fill="#f0c774" d="M 408.269531 572.851562 L 149.519531 572.851562 C 142.101562 572.851562 135.511719 567.082031 135.511719 559.667969 C 135.511719 551.425781 142.101562 545.65625 149.519531 545.65625 L 408.269531 545.65625 C 415.6875 545.65625 421.457031 551.425781 421.457031 559.667969 C 421.457031 567.082031 415.6875 572.851562 408.269531 572.851562 Z M 408.269531 572.851562 " fill-opacity="1" fill-rule="evenodd"/><g clip-path="url(#83de4f6ba1)"><path fill="#f0c774" d="M 88.539062 633.832031 C 48.160156 633.832031 14.375 600.871094 14.375 559.667969 C 14.375 518.464844 48.160156 484.679688 88.539062 484.679688 C 129.742188 484.679688 163.527344 518.464844 163.527344 559.667969 C 163.527344 600.871094 129.742188 633.832031 88.539062 633.832031 Z M 88.539062 633.832031 " fill-opacity="1" fill-rule="evenodd"/></g><path fill="#f0c774" d="M 408.269531 722.003906 L 330.808594 722.003906 C 323.394531 722.003906 316.800781 716.238281 316.800781 708.820312 C 316.800781 701.402344 323.394531 694.8125 330.808594 694.8125 L 408.269531 694.8125 C 415.6875 694.8125 421.457031 701.402344 421.457031 708.820312 C 421.457031 716.238281 415.6875 722.003906 408.269531 722.003906 Z M 408.269531 722.003906 " fill-opacity="1" fill-rule="evenodd"/><path fill="#f0c774" d="M 269.832031 782.984375 C 228.628906 782.984375 195.664062 750.023438 195.664062 708.820312 C 195.664062 667.617188 228.628906 633.832031 269.832031 633.832031 C 311.03125 633.832031 344.820312 667.617188 344.820312 708.820312 C 344.820312 750.023438 311.03125 782.984375 269.832031 782.984375 Z M 269.832031 782.984375 " fill-opacity="1" fill-rule="evenodd"/><path fill="#f0c774" d="M 408.269531 871.160156 L 149.519531 871.160156 C 142.101562 871.160156 135.511719 864.566406 135.511719 857.148438 C 135.511719 849.734375 142.101562 843.140625 149.519531 843.140625 L 408.269531 843.140625 C 415.6875 843.140625 421.457031 849.734375 421.457031 857.148438 C 421.457031 864.566406 415.6875 871.160156 408.269531 871.160156 Z M 408.269531 871.160156 " fill-opacity="1" fill-rule="evenodd"/><g clip-path="url(#50cef70520)"><path fill="#f0c774" d="M 88.539062 931.3125 C 48.160156 931.3125 14.375 898.351562 14.375 857.148438 C 14.375 815.945312 48.160156 782.984375 88.539062 782.984375 C 129.742188 782.984375 163.527344 815.945312 163.527344 857.148438 C 163.527344 898.351562 129.742188 931.3125 88.539062 931.3125 Z M 88.539062 931.3125 " fill-opacity="1" fill-rule="evenodd"/></g></svg>