<svg xmlns="http://www.w3.org/2000/svg" xmlns:xlink="http://www.w3.org/1999/xlink" width="1890" zoomAndPan="magnify" viewBox="0 0 1416.96 1417.499936" height="1890" preserveAspectRatio="xMidYMid meet" version="1.0"><defs><clipPath id="3ebd85dfbe"><path d="M 277.976562 801 L 709 801 L 709 1416.792969 L 277.976562 1416.792969 Z M 277.976562 801 " clip-rule="nonzero"/></clipPath><clipPath id="5134715d52"><path d="M 708 801 L 1139.421875 801 L 1139.421875 1416.792969 L 708 1416.792969 Z M 708 801 " clip-rule="nonzero"/></clipPath></defs><path fill="#f0c774" d="M 708.59375 17 L 708.59375 525.242188 L 283.964844 724.714844 L 282.546875 723.890625 L 326.511719 650.910156 Z M 708.59375 17 " fill-opacity="1" fill-rule="nonzero"/><g clip-path="url(#3ebd85dfbe)"><path fill="#f0c774" d="M 708.59375 1059.582031 L 708.59375 1416.066406 L 277.976562 801.683594 Z M 708.59375 1059.582031 " fill-opacity="1" fill-rule="nonzero"/></g><path fill="#5f658b" d="M 708.59375 525.242188 L 708.59375 979.050781 L 335.570312 755.640625 L 283.964844 724.714844 Z M 708.59375 525.242188 " fill-opacity="1" fill-rule="nonzero"/><path fill="#5f658b" d="M 1134.714844 723.890625 L 1133.304688 724.714844 L 708.59375 525.242188 L 708.59375 17 L 1090.75 650.910156 Z M 1134.714844 723.890625 " fill-opacity="1" fill-rule="nonzero"/><path fill="#434871" d="M 1133.304688 724.714844 L 1081.609375 755.640625 L 708.59375 979.050781 L 708.59375 525.242188 Z M 1133.304688 724.714844 " fill-opacity="1" fill-rule="nonzero"/><g clip-path="url(#5134715d52)"><path fill="#5f658b" d="M 1139.285156 801.683594 L 708.675781 1416.144531 L 708.59375 1416.066406 L 708.59375 1059.582031 Z M 1139.285156 801.683594 " fill-opacity="1" fill-rule="nonzero"/></g></svg>