<svg xmlns="http://www.w3.org/2000/svg" xmlns:xlink="http://www.w3.org/1999/xlink" width="1890" zoomAndPan="magnify" viewBox="0 0 1417.5 1417.500002" height="1890" preserveAspectRatio="xMidYMid meet" version="1.0"><defs><clipPath id="7b6963d388"><path d="M 33.535156 27.453125 L 1394 27.453125 L 1394 1387.644531 L 33.535156 1387.644531 Z M 33.535156 27.453125 " clip-rule="nonzero"/></clipPath></defs><g clip-path="url(#7b6963d388)"><path fill="#f0c774" d="M 218.769531 554.648438 C 218.769531 542.910156 228.285156 533.394531 240.023438 533.394531 L 776.777344 533.394531 C 788.515625 533.394531 798.03125 542.910156 798.03125 554.648438 C 798.03125 566.382812 788.515625 575.898438 776.777344 575.898438 L 240.023438 575.898438 C 228.285156 575.898438 218.769531 566.382812 218.769531 554.648438 Z M 719.554688 1166.128906 L 240.023438 1166.128906 C 228.285156 1166.128906 218.769531 1175.644531 218.769531 1187.378906 C 218.769531 1199.117188 228.285156 1208.632812 240.023438 1208.632812 L 719.554688 1208.632812 C 731.292969 1208.632812 740.808594 1199.117188 740.808594 1187.378906 C 740.808594 1175.644531 731.292969 1166.128906 719.554688 1166.128906 Z M 240.023438 417.714844 L 625.335938 417.714844 C 637.070312 417.714844 646.585938 408.199219 646.585938 396.464844 C 646.585938 384.726562 637.070312 375.210938 625.335938 375.210938 L 240.023438 375.210938 C 228.285156 375.210938 218.769531 384.726562 218.769531 396.464844 C 218.769531 408.199219 228.285156 417.714844 240.023438 417.714844 Z M 1380.800781 1317.507812 L 1326.402344 1373.570312 C 1317.359375 1382.890625 1305.3125 1387.574219 1293.25 1387.574219 C 1281.652344 1387.574219 1270.046875 1383.246094 1261.085938 1374.558594 L 1120.230469 1237.875 C 1116.332031 1242.457031 1110.53125 1245.375 1104.042969 1245.375 L 983.101562 1245.375 L 983.101562 1366.3125 C 983.101562 1378.046875 973.585938 1387.5625 961.847656 1387.5625 L 54.953125 1387.5625 C 43.21875 1387.5625 33.703125 1378.046875 33.703125 1366.3125 L 33.703125 190.894531 C 33.703125 179.160156 43.21875 169.644531 54.953125 169.644531 L 175.894531 169.644531 L 175.894531 48.707031 C 175.894531 36.96875 185.410156 27.453125 197.148438 27.453125 L 957.105469 27.453125 C 962.742188 27.453125 968.144531 29.695312 972.132812 33.679688 L 1119.066406 180.613281 C 1123.050781 184.601562 1125.289062 190.003906 1125.289062 195.640625 L 1125.289062 743.839844 C 1147.929688 785.621094 1160.796875 833.4375 1160.796875 884.203125 C 1160.796875 940.601562 1144.910156 993.359375 1117.394531 1038.25 L 1177.546875 1097.273438 C 1183.347656 1094.585938 1189.691406 1093.082031 1196.289062 1092.980469 C 1208.695312 1092.914062 1220.320312 1097.414062 1229.15625 1105.992188 L 1379.820312 1252.1875 C 1398.09375 1269.933594 1398.53125 1299.234375 1380.800781 1317.507812 Z M 1092.316406 1073.1875 C 1086.609375 1080.035156 1080.605469 1086.625 1074.316406 1092.933594 L 1127.152344 1144.78125 L 1145.746094 1125.613281 Z M 1118.292969 884.203125 C 1118.292969 744.640625 1004.753906 631.097656 865.191406 631.097656 C 725.628906 631.097656 612.089844 744.640625 612.089844 884.203125 C 612.089844 1023.765625 725.628906 1137.304688 865.191406 1137.304688 C 1004.753906 1137.304688 1118.292969 1023.765625 1118.292969 884.203125 Z M 836.164062 316.582031 L 910.539062 316.582031 L 836.164062 242.203125 Z M 978.355469 174.386719 L 1052.730469 174.386719 L 978.355469 100.011719 Z M 218.398438 169.644531 L 814.914062 169.644531 C 820.550781 169.644531 825.953125 171.882812 829.941406 175.867188 L 976.875 322.804688 C 980.859375 326.792969 983.097656 332.195312 983.097656 337.832031 L 983.097656 613.152344 C 1021.152344 629.773438 1055.058594 654.167969 1082.789062 684.335938 L 1082.789062 216.890625 L 957.105469 216.890625 C 945.367188 216.890625 935.851562 207.375 935.851562 195.640625 L 935.851562 69.957031 L 218.398438 69.957031 Z M 940.59375 1224.121094 L 940.59375 1170.050781 C 916.515625 1176.40625 891.242188 1179.808594 865.191406 1179.808594 C 763.789062 1179.808594 674.160156 1128.480469 620.890625 1050.449219 L 240.023438 1050.449219 C 228.285156 1050.449219 218.769531 1040.933594 218.769531 1029.199219 C 218.769531 1017.460938 228.285156 1007.945312 240.023438 1007.945312 L 596.765625 1007.945312 C 580.398438 972.582031 570.808594 933.464844 569.699219 892.265625 L 240.023438 892.265625 C 228.285156 892.265625 218.769531 882.75 218.769531 871.015625 C 218.769531 859.277344 228.285156 849.761719 240.023438 849.761719 L 571.601562 849.761719 C 576.480469 807.929688 590.117188 768.746094 610.640625 734.082031 L 240.023438 734.082031 C 228.285156 734.082031 218.769531 724.566406 218.769531 712.828125 C 218.769531 701.09375 228.285156 691.578125 240.023438 691.578125 L 641.144531 691.578125 C 695.398438 628.5625 775.710938 588.59375 865.191406 588.59375 C 891.242188 588.59375 916.511719 591.996094 940.59375 598.351562 L 940.59375 359.082031 L 814.914062 359.082031 C 803.175781 359.082031 793.660156 349.566406 793.660156 337.828125 L 793.660156 212.148438 L 76.207031 212.148438 L 76.207031 1345.058594 L 940.59375 1345.058594 Z M 1082.789062 1202.871094 L 1082.789062 1160.800781 L 1042.109375 1120.878906 C 1023.9375 1134.496094 1004.148438 1146.054688 983.097656 1155.25 L 983.097656 1202.871094 Z M 1350.214844 1282.691406 L 1199.550781 1136.492188 C 1198.695312 1135.660156 1197.699219 1135.480469 1196.992188 1135.480469 C 1196.96875 1135.480469 1196.949219 1135.480469 1196.929688 1135.480469 C 1196.21875 1135.492188 1195.191406 1135.691406 1194.335938 1136.570312 L 1139.9375 1192.632812 C 1138.566406 1194.039062 1138.605469 1196.476562 1140.011719 1197.847656 L 1290.679688 1344.046875 C 1292.089844 1345.417969 1294.53125 1345.378906 1295.898438 1343.96875 L 1350.296875 1287.90625 C 1351.667969 1286.5 1351.625 1284.0625 1350.214844 1282.691406 Z M 1083.445312 884.203125 C 1083.445312 1004.550781 985.539062 1102.457031 865.191406 1102.457031 C 744.84375 1102.457031 646.9375 1004.550781 646.9375 884.203125 C 646.9375 763.855469 744.84375 665.949219 865.191406 665.949219 C 985.539062 665.949219 1083.445312 763.855469 1083.445312 884.203125 Z M 1040.941406 884.203125 C 1040.941406 787.296875 962.097656 708.453125 865.191406 708.453125 C 768.285156 708.453125 689.441406 787.296875 689.441406 884.203125 C 689.441406 981.109375 768.285156 1059.953125 865.191406 1059.953125 C 962.097656 1059.953125 1040.941406 981.109375 1040.941406 884.203125 Z M 1040.941406 884.203125 " fill-opacity="1" fill-rule="nonzero"/></g></svg>